<svg width="850" height="200" viewBox="0 0 850 200" fill="none" xmlns="http://www.w3.org/2000/svg">
<rect width="850" height="200" fill="#2292A4"/>
<path d="M258.963 99.4989C262.861 100.329 265.991 102.278 268.355 105.345C270.719 108.348 271.901 111.798 271.901 115.695C271.901 121.318 269.92 125.79 265.959 129.112C262.062 132.371 256.599 134 249.571 134H218.233V66.7229H248.517C255.353 66.7229 260.688 68.2882 264.522 71.4189C268.419 74.5495 270.368 78.7983 270.368 84.1651C270.368 88.1263 269.314 91.4167 267.205 94.0362C265.161 96.6558 262.413 98.4767 258.963 99.4989ZM234.621 93.9404H245.354C248.038 93.9404 250.082 93.3654 251.488 92.2153C252.957 91.0014 253.692 89.2444 253.692 86.9443C253.692 84.6443 252.957 82.8873 251.488 81.6733C250.082 80.4594 248.038 79.8525 245.354 79.8525H234.621V93.9404ZM246.696 120.775C249.443 120.775 251.552 120.168 253.021 118.954C254.555 117.676 255.321 115.855 255.321 113.491C255.321 111.127 254.523 109.274 252.926 107.933C251.392 106.591 249.252 105.92 246.504 105.92H234.621V120.775H246.696ZM313.224 134.671C306.899 134.671 301.085 133.201 295.782 130.262C290.543 127.323 286.358 123.234 283.227 117.995C280.16 112.692 278.627 106.751 278.627 100.17C278.627 93.589 280.16 87.6791 283.227 82.44C286.358 77.201 290.543 73.112 295.782 70.173C301.085 67.234 306.899 65.7645 313.224 65.7645C319.549 65.7645 325.331 67.234 330.57 70.173C335.873 73.112 340.026 77.201 343.029 82.44C346.096 87.6791 347.629 93.589 347.629 100.17C347.629 106.751 346.096 112.692 343.029 117.995C339.962 123.234 335.809 127.323 330.57 130.262C325.331 133.201 319.549 134.671 313.224 134.671ZM313.224 119.72C318.591 119.72 322.871 117.931 326.066 114.354C329.324 110.776 330.954 106.048 330.954 100.17C330.954 94.2279 329.324 89.5 326.066 85.986C322.871 82.4081 318.591 80.6191 313.224 80.6191C307.793 80.6191 303.448 82.3761 300.19 85.8901C296.996 89.4041 295.398 94.164 295.398 100.17C295.398 106.112 296.996 110.871 300.19 114.449C303.448 117.963 307.793 119.72 313.224 119.72ZM388.564 134.671C382.239 134.671 376.425 133.201 371.122 130.262C365.883 127.323 361.698 123.234 358.567 117.995C355.5 112.692 353.967 106.751 353.967 100.17C353.967 93.589 355.5 87.6791 358.567 82.44C361.698 77.201 365.883 73.112 371.122 70.173C376.425 67.234 382.239 65.7645 388.564 65.7645C394.889 65.7645 400.671 67.234 405.91 70.173C411.213 73.112 415.366 77.201 418.369 82.44C421.436 87.6791 422.969 93.589 422.969 100.17C422.969 106.751 421.436 112.692 418.369 117.995C415.302 123.234 411.149 127.323 405.91 130.262C400.671 133.201 394.889 134.671 388.564 134.671ZM388.564 119.72C393.931 119.72 398.211 117.931 401.406 114.354C404.664 110.776 406.294 106.048 406.294 100.17C406.294 94.2279 404.664 89.5 401.406 85.986C398.211 82.4081 393.931 80.6191 388.564 80.6191C383.133 80.6191 378.789 82.3761 375.53 85.8901C372.336 89.4041 370.738 94.164 370.738 100.17C370.738 106.112 372.336 110.871 375.53 114.449C378.789 117.963 383.133 119.72 388.564 119.72ZM471.092 134L448.474 104.291V134H432.086V66.7229H448.474V96.2405L470.9 66.7229H490.163L464.096 99.6906L491.122 134H471.092ZM523.252 134.671C518.333 134.671 513.924 133.872 510.027 132.275C506.129 130.678 502.999 128.314 500.635 125.183C498.335 122.052 497.121 118.283 496.993 113.874H514.435C514.691 116.366 515.553 118.283 517.023 119.625C518.492 120.902 520.409 121.541 522.773 121.541C525.201 121.541 527.118 120.998 528.523 119.912C529.929 118.762 530.632 117.197 530.632 115.216C530.632 113.555 530.057 112.181 528.907 111.095C527.82 110.009 526.447 109.114 524.786 108.412C523.188 107.709 520.888 106.91 517.885 106.016C513.541 104.674 509.995 103.332 507.247 101.991C504.5 100.649 502.136 98.6683 500.156 96.0488C498.175 93.4293 497.185 90.0111 497.185 85.7943C497.185 79.533 499.453 74.6453 503.989 71.1313C508.525 67.5535 514.435 65.7645 521.719 65.7645C529.13 65.7645 535.104 67.5535 539.64 71.1313C544.176 74.6453 546.604 79.5649 546.924 85.8901H529.194C529.066 83.7179 528.268 82.0247 526.798 80.8108C525.329 79.533 523.444 78.8941 521.144 78.8941C519.163 78.8941 517.566 79.4372 516.352 80.5233C515.138 81.5456 514.531 83.047 514.531 85.0276C514.531 87.1999 515.553 88.893 517.598 90.1069C519.642 91.3209 522.837 92.6306 527.181 94.0362C531.526 95.5057 535.04 96.9113 537.723 98.253C540.471 99.5947 542.835 101.543 544.815 104.099C546.796 106.655 547.786 109.945 547.786 113.97C547.786 117.804 546.796 121.286 544.815 124.416C542.899 127.547 540.087 130.039 536.382 131.892C532.676 133.744 528.3 134.671 523.252 134.671ZM606.269 66.7229V79.8525H588.443V134H572.055V79.8525H554.23V66.7229H606.269ZM646.311 134.671C639.986 134.671 634.172 133.201 628.869 130.262C623.63 127.323 619.445 123.234 616.315 117.995C613.248 112.692 611.714 106.751 611.714 100.17C611.714 93.589 613.248 87.6791 616.315 82.44C619.445 77.201 623.63 73.112 628.869 70.173C634.172 67.234 639.986 65.7645 646.311 65.7645C652.636 65.7645 658.419 67.234 663.658 70.173C668.961 73.112 673.114 77.201 676.116 82.44C679.183 87.6791 680.717 93.589 680.717 100.17C680.717 106.751 679.183 112.692 676.116 117.995C673.05 123.234 668.897 127.323 663.658 130.262C658.419 133.201 652.636 134.671 646.311 134.671ZM646.311 119.72C651.678 119.72 655.959 117.931 659.153 114.354C662.412 110.776 664.041 106.048 664.041 100.17C664.041 94.2279 662.412 89.5 659.153 85.986C655.959 82.4081 651.678 80.6191 646.311 80.6191C640.881 80.6191 636.536 82.3761 633.278 85.8901C630.083 89.4041 628.486 94.164 628.486 100.17C628.486 106.112 630.083 110.871 633.278 114.449C636.536 117.963 640.881 119.72 646.311 119.72ZM724.143 134L710.151 108.603H706.222V134H689.834V66.7229H717.339C722.642 66.7229 727.146 67.6493 730.852 69.5021C734.621 71.355 737.432 73.9106 739.285 77.169C741.138 80.3636 742.065 83.9415 742.065 87.9027C742.065 92.3751 740.787 96.3683 738.231 99.8823C735.739 103.396 732.034 105.888 727.114 107.357L742.64 134H724.143ZM706.222 97.0072H716.38C719.383 97.0072 721.619 96.2724 723.089 94.8029C724.622 93.3334 725.389 91.257 725.389 88.5736C725.389 86.0179 724.622 84.0054 723.089 82.5359C721.619 81.0664 719.383 80.3316 716.38 80.3316H706.222V97.0072ZM768.74 79.8525V93.4612H790.686V106.112H768.74V120.87H793.562V134H752.352V66.7229H793.562V79.8525H768.74Z" fill="white"/>
<path d="M119.193 52.7004L116.455 53.7843L113.716 52.7004C105.494 49.4093 96.6687 47.8959 87.82 48.2597C78.9712 48.6235 70.2996 50.8562 62.3755 54.8111L59.4091 56.4084V149.05L67.6807 144.943C74.1395 141.737 81.2011 139.928 88.4056 139.633C95.61 139.339 102.796 140.565 109.495 143.232L116.455 146.027L123.414 143.232C130.113 140.565 137.299 139.339 144.504 139.633C151.708 139.928 158.77 141.737 165.228 144.943L173.5 149.05V56.4084L170.363 54.8111C162.461 50.881 153.82 48.6617 145.003 48.298C136.186 47.9343 127.391 49.4344 119.193 52.7004ZM90.67 128.115C83.924 128.105 77.2207 129.184 70.8182 131.309V63.5961C83.1803 58.4628 97.0585 58.3604 109.495 63.3109L110.75 63.8243V131.537C104.233 129.292 97.3914 128.135 90.4989 128.115H90.67ZM162.091 131.309C149.135 126.961 135.115 126.961 122.159 131.309V63.8243L123.414 63.3109C135.851 58.3604 149.729 58.4628 162.091 63.5961V131.309Z" fill="white"/>
</svg>
