<svg width="40" height="40" viewBox="0 0 40 40" fill="none" xmlns="http://www.w3.org/2000/svg">
<path d="M28.3333 30C29.2174 30 30.0652 30.3512 30.6903 30.9764C31.3155 31.6015 31.6667 32.4493 31.6667 33.3334C31.6667 34.2174 31.3155 35.0653 30.6903 35.6904C30.0652 36.3155 29.2174 36.6667 28.3333 36.6667C26.4833 36.6667 25 35.1667 25 33.3334C25 31.4834 26.4833 30 28.3333 30ZM1.66666 3.33337H7.11666L8.68332 6.66671H33.3333C33.7753 6.66671 34.1993 6.8423 34.5118 7.15486C34.8244 7.46742 35 7.89135 35 8.33337C35 8.61671 34.9166 8.90004 34.8 9.16671L28.8333 19.95C28.2667 20.9667 27.1667 21.6667 25.9167 21.6667H13.5L12 24.3834L11.95 24.5834C11.95 24.6939 11.9939 24.7999 12.072 24.878C12.1502 24.9561 12.2561 25 12.3667 25H31.6667V28.3334H11.6667C9.81666 28.3334 8.33332 26.8334 8.33332 25C8.33332 24.4167 8.48332 23.8667 8.73332 23.4L11 19.3167L4.99999 6.66671H1.66666V3.33337ZM11.6667 30C12.5507 30 13.3986 30.3512 14.0237 30.9764C14.6488 31.6015 15 32.4493 15 33.3334C15 34.2174 14.6488 35.0653 14.0237 35.6904C13.3986 36.3155 12.5507 36.6667 11.6667 36.6667C9.81666 36.6667 8.33332 35.1667 8.33332 33.3334C8.33332 31.4834 9.81666 30 11.6667 30ZM26.6667 18.3334L31.3 10H10.2333L14.1667 18.3334H26.6667Z" fill="white"/>
</svg>
