<svg width="252" height="197" viewBox="0 0 252 197" fill="none" xmlns="http://www.w3.org/2000/svg">
<path d="M178.617 105.735C178.058 105.028 177.203 104.614 176.294 104.614H61.4589L55.1942 85.7119C54.7885 84.4982 53.6432 83.6666 52.3573 83.6666H40.2985C38.6673 83.6666 37.3289 85.0084 37.3289 86.6402C37.3289 88.2798 38.6668 89.6138 40.2985 89.6138H44.984C44.992 89.6217 44.9959 89.6335 44.9959 89.6381H50.2035L56.4439 108.46L70.6288 158.102H69.431C62.2018 158.102 56.323 163.985 56.323 171.214C56.323 178.444 62.2018 184.322 69.431 184.322H75.6754C75.6754 182.088 76.4026 180.027 77.6365 178.355H69.431C65.489 178.355 62.2906 175.153 62.2906 171.215C62.2906 167.281 65.489 164.075 69.431 164.075H164.488C165.887 164.075 167.092 163.102 167.398 161.736L179.211 108.252C179.404 107.358 179.191 106.438 178.617 105.735ZM130.208 110.589H153.105L149.794 124.569H130.209L130.208 110.589ZM130.208 127.554H149.09L145.663 142.076H130.208V127.554ZM63.2629 110.589H80.7706L84.0736 124.569H67.253L63.2629 110.589ZM68.1089 127.554H84.777L88.2048 142.076H72.26L68.1089 127.554ZM76.8325 158.101L73.1114 145.066H88.9117L91.9898 158.101H76.8325ZM106.729 158.101H95.0555L91.9774 145.066H106.728L106.729 158.101ZM106.729 142.076H91.2705L87.8387 127.554H106.729V142.076ZM106.729 124.569H87.1398L83.8368 110.589H106.729L106.729 124.569ZM127.219 158.101H109.715V145.066H127.219V158.101ZM127.219 142.076H109.715V127.554H127.219V142.076ZM127.219 124.569H109.715V110.589H127.219V124.569ZM130.208 158.101V145.066H144.955L141.877 158.101H130.208ZM162.085 158.101H144.955L148.025 145.066H164.962L162.085 158.101ZM165.626 142.076H148.733L152.161 127.554H168.829L165.626 142.076ZM169.491 124.569H152.867L156.159 110.589H172.581L169.491 124.569ZM93.8345 178.354C95.0679 180.026 95.7956 182.087 95.7956 184.321H122.787C122.787 182.087 123.514 180.025 124.748 178.354H93.8345ZM146.832 178.354H140.945C142.183 180.026 142.91 182.087 142.91 184.321H146.832C148.48 184.321 149.818 182.991 149.818 181.343C149.818 179.688 148.48 178.354 146.832 178.354Z" fill="#2292A4"/>
<path d="M140.945 178.354C139.117 175.871 136.168 174.263 132.844 174.263C129.525 174.263 126.58 175.871 124.747 178.354C123.514 180.026 122.786 182.087 122.786 184.321C122.786 189.882 127.291 194.383 132.844 194.383C138.406 194.383 142.91 189.882 142.91 184.321C142.91 182.087 142.183 180.026 140.945 178.354ZM132.844 190.296C129.549 190.296 126.881 187.624 126.881 184.321C126.881 181.03 129.549 178.354 132.844 178.354C136.147 178.354 138.82 181.03 138.82 184.321C138.819 187.624 136.147 190.296 132.844 190.296Z" fill="#212020"/>
<path d="M135.099 184.321C135.099 185.567 134.09 186.58 132.844 186.58C131.602 186.58 130.598 185.567 130.598 184.321C130.598 183.084 131.602 182.071 132.844 182.071C134.09 182.071 135.099 183.083 135.099 184.321Z" fill="#212020"/>
<path d="M93.8345 178.354C92.0022 175.871 89.0569 174.263 85.7335 174.263C82.4147 174.263 79.4688 175.871 77.6365 178.354C76.4031 180.026 75.6754 182.087 75.6754 184.321C75.6754 189.882 80.1802 194.383 85.733 194.383C91.2943 194.383 95.7951 189.882 95.7951 184.321C95.7951 182.087 95.0679 180.026 93.8345 178.354ZM85.733 190.296C82.4379 190.296 79.766 187.624 79.766 184.321C79.766 181.03 82.4379 178.354 85.733 178.354C89.032 178.354 91.7045 181.03 91.7045 184.321C91.7045 187.624 89.0326 190.296 85.733 190.296Z" fill="#212020"/>
<path d="M87.9873 184.321C87.9873 185.567 86.9788 186.58 85.7329 186.58C84.4911 186.58 83.4825 185.567 83.4825 184.321C83.4825 183.084 84.4911 182.071 85.7329 182.071C86.9788 182.071 87.9873 183.083 87.9873 184.321Z" fill="#212020"/>
<path d="M178.617 105.735C178.058 105.028 177.202 104.613 176.294 104.613H84.7871C86.6092 106.554 88.476 108.547 90.3823 110.588H106.729V124.568H103.369C104.287 125.56 105.207 126.556 106.129 127.554H106.729V128.203C107.723 129.28 108.718 130.359 109.715 131.44V127.553H127.219V142.075H119.497C120.415 143.075 121.33 144.072 122.24 145.065H127.219V150.499C128.223 151.597 129.221 152.688 130.208 153.767V145.065H144.956L141.878 158.101H134.168C136.029 160.139 137.85 162.135 139.616 164.072H164.488C165.887 164.072 167.092 163.099 167.397 161.733L179.212 108.249C179.404 107.358 179.191 106.438 178.617 105.735ZM127.219 124.569H109.715V110.589H127.219V124.569ZM130.208 110.589H153.105L149.793 124.569H130.208V110.589ZM130.208 142.076V127.554H149.09L145.663 142.076H130.208ZM162.085 158.101H144.955L148.025 145.066H164.962L162.085 158.101ZM165.626 142.076H148.733L152.161 127.554H168.829L165.626 142.076ZM169.491 124.569H152.868L156.158 110.589H172.581L169.491 124.569Z" fill="#2292A4"/>
<path d="M208.89 42.9205C208.89 42.9205 212.946 41.8504 214.478 43.8816C216.009 45.9139 215.874 52.9312 212.63 56.3471C209.385 59.7643 200.419 71.2603 177.709 71.2603V65.8578C177.709 65.8578 188.589 64.3843 194.807 56.9489C201.025 49.5152 206.622 45.5873 206.622 45.5873C206.622 45.5873 207.56 42.5595 208.89 42.9205Z" fill="url(#paint0_linear)"/>
<path d="M178.174 66.7183L178.1 66.5963C177.687 65.9205 177.121 65.3595 176.446 64.9634C175.636 64.4877 174.532 63.8792 173.82 63.6464C172.576 63.2407 170.765 63.1249 171.161 63.6464C171.557 64.1679 172.576 65.0374 172.348 65.5013C172.123 65.9652 165.979 67.7664 164.441 67.7664C163.672 67.7664 163.672 68.2438 163.864 68.7195C164.101 69.3077 164.601 69.7371 165.192 69.9343C166.824 70.4829 170.76 71.7027 173.48 71.7027C176.987 71.7027 177.892 71.1886 177.892 71.1886L178.174 66.7183Z" fill="url(#paint1_linear)"/>
<path d="M194.021 24.8037C194.021 24.8037 194.492 27.9457 194.021 28.9672C193.55 29.9882 192.214 31.0871 193.078 31.4809C193.942 31.873 193.025 36.193 194.23 37.0575C195.434 37.9219 203.988 37.5287 203.988 37.5287L204.39 42.634C204.39 42.634 208.71 43.1843 208.71 42.634C208.71 42.0843 208.71 37.6852 208.71 37.6852L211.538 29.4384C211.538 29.4384 212.559 25.9044 207.139 24.8043C201.719 23.7037 194.021 24.8037 194.021 24.8037Z" fill="url(#paint2_linear)"/>
<path d="M225.938 182.972L227.822 188.627L224.995 189.466L222.586 183.6L225.938 182.972Z" fill="url(#paint3_linear)"/>
<path d="M229.708 186.953L223.005 188.837C223.005 188.837 222.062 191.455 218.606 193.026C215.15 194.598 213.893 193.026 214.417 195.959H225.204C225.204 195.959 229.498 195.331 230.335 193.131C231.174 190.932 229.708 186.953 229.708 186.953Z" fill="url(#paint4_linear)"/>
<path d="M171.373 186.219L169.384 192.084L166.241 191.455L167.813 185.067L171.373 186.219Z" fill="url(#paint5_linear)"/>
<path d="M170.691 190.618H169.487C169.487 190.618 166.661 190.722 166.241 189.466C165.822 188.209 163.518 188.575 163.518 188.575C163.518 188.575 163.099 190.303 160.586 190.198C159.033 190.134 156.922 189.989 155.558 190.431C154.528 190.764 154.479 192.218 155.455 192.687L158.837 194.308C161.677 195.671 164.785 196.378 167.935 196.378H169.958C169.958 196.378 172.575 193.76 170.691 190.618Z" fill="url(#paint6_linear)"/>
<path d="M165.506 185.906L172.887 187.476C176.673 183.554 194.777 129.541 198.7 117.775V117.767C199.18 116.331 199.445 115.524 199.445 115.524C199.871 119.909 201.76 127.1 204.284 135.234L204.292 135.253C210.975 156.798 222.061 184.961 222.061 184.961L227.408 183.39C222.061 177.108 216.722 92.9077 216.722 92.9077C216.722 92.9077 191.582 88.5035 188.131 94.4789C184.672 100.443 165.506 185.906 165.506 185.906Z" fill="url(#paint7_linear)"/>
<path d="M184.672 94.314C185.916 98.7634 199.553 100.625 209.267 99.4442C211.91 99.1261 214.252 98.5809 215.987 97.8006C217.556 97.1012 218.619 96.2023 218.918 95.105C220.807 88.3493 221.488 45.459 215.623 44.733C209.758 43.9979 203.984 43.6341 203.984 43.6341C203.984 43.6341 199.28 53.395 194.495 64.4165C192.97 67.9314 191.446 71.5716 190.056 75.0667C186.551 83.8734 183.964 91.754 184.672 94.314Z" fill="#2292A4"/>
<path d="M203.211 26.6101C203.211 26.6101 192.809 27.396 191.961 24.7246C191.114 22.0545 190.294 16.3994 191.961 15.77C193.629 15.1422 193.156 17.9701 193.156 17.9701C193.156 17.9701 198.532 11.9703 201.988 11.9703C205.444 11.9703 215.303 13.5066 215.474 22.8952C215.649 32.5273 208.552 38.6536 208.552 38.6536C208.552 38.6536 207.086 35.9309 208.342 34.3596C209.599 32.7883 210.389 26.8976 207.876 27.7028C205.363 28.5079 205.724 31.951 204.992 30.9041C204.258 29.856 203.211 26.6101 203.211 26.6101Z" fill="#22418A"/>
<path d="M210.501 40.6147H201.805C201.805 40.6147 203.507 43.8369 203.52 44.5279C203.531 45.2184 210.832 43.0318 210.832 43.0318C210.832 43.0318 211.894 40.9018 210.501 40.6147Z" fill="url(#paint8_linear)"/>
<path opacity="0.2" d="M190.056 75.0662C191.446 71.5711 192.971 67.9308 194.496 64.4159C196.076 63.3995 197.483 62.2367 198.627 60.9123C202.814 56.0262 204.878 52.4848 205.881 50.361C205.278 49.7248 204.83 49.1762 204.982 48.7614C205.193 48.1919 206.282 47.3088 207.441 46.4975C207.908 45.6392 208.596 44.7793 209.413 44.9968C209.413 44.9968 209.608 44.9477 209.924 44.8884C210.3 44.6612 210.544 44.5194 210.544 44.5194C210.544 44.5194 217.153 40.6384 218.2 48.8304C219.975 62.7311 207.025 70.0789 207.025 70.0789L207.15 66.5567C203.302 69.6399 197.826 72.9779 190.056 75.0662Z" fill="#FE7624"/>
<path d="M207.139 35.6918C207.139 35.6918 205.716 37.284 203.988 37.5281L204.231 40.6147C204.231 40.6147 206.723 38.3778 207.139 35.6918Z" fill="#FEBD9F"/>
<path d="M194.807 63.2972L196.16 60.6248C196.16 60.6248 179.486 69.6128 171.39 67.5002C163.295 65.3877 171.845 70.3812 171.845 70.3812C171.845 70.3812 190.257 68.7212 194.807 63.2972Z" fill="#FEBD9F"/>
<path d="M198.7 117.766C199.181 116.33 199.445 115.523 199.445 115.523C199.872 119.908 201.76 127.099 204.285 135.234L204.293 135.252L210.581 153.154L199.345 103.675L198.7 117.766Z" fill="#23519B"/>
<path d="M146.417 53.1182H172.892V48.4456H146.417V53.1182Z" fill="#FFDA99"/>
<path d="M146.417 53.1184H172.892V52.7546H146.417V53.1184Z" fill="#FFBB01"/>
<path d="M147.04 72.4293H172.268V53.1182H147.04V72.4293Z" fill="url(#paint9_linear)"/>
<path d="M147.04 55.2194L172.268 53.1182H147.04V55.2194Z" fill="url(#paint10_linear)"/>
<path d="M157.785 55.2197H161.523V47.9266H157.785V55.2197Z" fill="#FFBB01"/>
<path d="M209.128 43.1713C209.128 43.1713 213.841 41.9577 215.622 44.2618C217.402 46.5653 217.245 54.5244 213.475 58.4009C209.704 62.2757 199.284 75.3147 172.892 75.3147V69.1879C172.892 69.1879 191.114 67.5155 198.341 59.0829C205.568 50.6502 206.493 46.1958 206.493 46.1958C206.493 46.1958 207.584 42.7606 209.128 43.1713Z" fill="url(#paint11_linear)"/>
<path d="M173.432 70.1625L173.346 70.0241C172.866 69.2585 172.207 68.6217 171.424 68.172C170.481 67.6319 169.199 66.9426 168.371 66.6787C166.925 66.2188 164.82 66.0866 165.28 66.6787C165.74 67.2708 166.925 68.2562 166.662 68.7828C166.399 69.3082 159.259 71.3518 157.47 71.3518C156.578 71.3518 156.578 71.8931 156.801 72.4332C157.076 73.1005 157.658 73.5864 158.344 73.8107C160.241 74.4322 164.816 75.8159 167.977 75.8159C172.052 75.8159 173.104 75.2339 173.104 75.2339L173.432 70.1625Z" fill="url(#paint12_linear)"/>
<path d="M199.989 55.0222L208.16 65.6143C208.16 65.6143 219.31 57.0127 218.199 48.8304C217.088 40.6469 210.544 41.7961 210.544 41.7961C210.544 41.7961 205.463 44.7324 204.982 46.037C204.502 47.3433 202.412 52.5684 199.989 55.0222Z" fill="url(#paint13_linear)"/>
<defs>
<linearGradient id="paint0_linear" x1="194.95" y1="57.8102" x2="172.929" y2="64.4676" gradientUnits="userSpaceOnUse">
<stop stop-color="#FEBD9F"/>
<stop offset="1" stop-color="#FFDA99"/>
</linearGradient>
<linearGradient id="paint1_linear" x1="195.868" y1="60.8481" x2="173.848" y2="67.5055" gradientUnits="userSpaceOnUse">
<stop stop-color="#FEBD9F"/>
<stop offset="1" stop-color="#FFDA99"/>
</linearGradient>
<linearGradient id="paint2_linear" x1="192.794" y1="33.5963" x2="211.614" y2="33.5963" gradientUnits="userSpaceOnUse">
<stop stop-color="#FEBD9F"/>
<stop offset="1" stop-color="#FFDA99"/>
</linearGradient>
<linearGradient id="paint3_linear" x1="222.586" y1="186.219" x2="227.822" y2="186.219" gradientUnits="userSpaceOnUse">
<stop stop-color="#FEBD9F"/>
<stop offset="1" stop-color="#FFDA99"/>
</linearGradient>
<linearGradient id="paint4_linear" x1="214.303" y1="191.456" x2="230.595" y2="191.456" gradientUnits="userSpaceOnUse">
<stop stop-color="#FE7624"/>
<stop offset="1" stop-color="#FEB745"/>
</linearGradient>
<linearGradient id="paint5_linear" x1="166.242" y1="188.575" x2="171.373" y2="188.575" gradientUnits="userSpaceOnUse">
<stop stop-color="#FEBD9F"/>
<stop offset="1" stop-color="#FFDA99"/>
</linearGradient>
<linearGradient id="paint6_linear" x1="154.753" y1="192.452" x2="171.373" y2="192.452" gradientUnits="userSpaceOnUse">
<stop stop-color="#FE7624"/>
<stop offset="1" stop-color="#FEB745"/>
</linearGradient>
<linearGradient id="paint7_linear" x1="195.941" y1="173.472" x2="190.897" y2="64.175" gradientUnits="userSpaceOnUse">
<stop stop-color="#22418A"/>
<stop offset="1" stop-color="#1F9FDE"/>
</linearGradient>
<linearGradient id="paint8_linear" x1="201.805" y1="42.6386" x2="211.219" y2="42.6386" gradientUnits="userSpaceOnUse">
<stop stop-color="#2292A4"/>
<stop offset="1" stop-color="#2ACCE6"/>
</linearGradient>
<linearGradient id="paint9_linear" x1="149.921" y1="53.1954" x2="173.462" y2="76.3628" gradientUnits="userSpaceOnUse">
<stop stop-color="#FEBD9F"/>
<stop offset="1" stop-color="#FEB745"/>
</linearGradient>
<linearGradient id="paint10_linear" x1="147.04" y1="54.169" x2="172.268" y2="54.169" gradientUnits="userSpaceOnUse">
<stop stop-color="#FEBD9F"/>
<stop offset="1" stop-color="#FFDA99"/>
</linearGradient>
<linearGradient id="paint11_linear" x1="202.881" y1="57.2438" x2="171.386" y2="65.4374" gradientUnits="userSpaceOnUse">
<stop stop-color="#FEBD9F"/>
<stop offset="1" stop-color="#FFDA99"/>
</linearGradient>
<linearGradient id="paint12_linear" x1="204.055" y1="61.7581" x2="172.561" y2="69.9517" gradientUnits="userSpaceOnUse">
<stop stop-color="#FEBD9F"/>
<stop offset="1" stop-color="#FFDA99"/>
</linearGradient>
<linearGradient id="paint13_linear" x1="218.277" y1="53.6776" x2="199.988" y2="53.6776" gradientUnits="userSpaceOnUse">
<stop stop-color="#2292A4"/>
<stop offset="1" stop-color="#62BCCA"/>
</linearGradient>
</defs>
</svg>
