<svg width="220" height="42" viewBox="0 0 220 42" fill="none" xmlns="http://www.w3.org/2000/svg">
<path d="M61.636 20.92C62.7747 21.1627 63.6893 21.732 64.38 22.628C65.0707 23.5053 65.416 24.5133 65.416 25.652C65.416 27.2947 64.8373 28.6013 63.68 29.572C62.5413 30.524 60.9453 31 58.892 31H49.736V11.344H58.584C60.5813 11.344 62.14 11.8013 63.26 12.716C64.3987 13.6307 64.968 14.872 64.968 16.44C64.968 17.5973 64.66 18.5587 64.044 19.324C63.4467 20.0893 62.644 20.6213 61.636 20.92ZM54.524 19.296H57.66C58.444 19.296 59.0413 19.128 59.452 18.792C59.8813 18.4373 60.096 17.924 60.096 17.252C60.096 16.58 59.8813 16.0667 59.452 15.712C59.0413 15.3573 58.444 15.18 57.66 15.18H54.524V19.296ZM58.052 27.136C58.8547 27.136 59.4707 26.9587 59.9 26.604C60.348 26.2307 60.572 25.6987 60.572 25.008C60.572 24.3173 60.3387 23.776 59.872 23.384C59.424 22.992 58.7987 22.796 57.996 22.796H54.524V27.136H58.052ZM77.489 31.196C75.641 31.196 73.9424 30.7667 72.393 29.908C70.8624 29.0493 69.6397 27.8547 68.725 26.324C67.829 24.7747 67.381 23.0387 67.381 21.116C67.381 19.1933 67.829 17.4667 68.725 15.936C69.6397 14.4053 70.8624 13.2107 72.393 12.352C73.9424 11.4933 75.641 11.064 77.489 11.064C79.337 11.064 81.0264 11.4933 82.557 12.352C84.1064 13.2107 85.3197 14.4053 86.197 15.936C87.093 17.4667 87.541 19.1933 87.541 21.116C87.541 23.0387 87.093 24.7747 86.197 26.324C85.301 27.8547 84.0877 29.0493 82.557 29.908C81.0264 30.7667 79.337 31.196 77.489 31.196ZM77.489 26.828C79.057 26.828 80.3077 26.3053 81.241 25.26C82.193 24.2147 82.669 22.8333 82.669 21.116C82.669 19.38 82.193 17.9987 81.241 16.972C80.3077 15.9267 79.057 15.404 77.489 15.404C75.9024 15.404 74.633 15.9173 73.681 16.944C72.7477 17.9707 72.281 19.3613 72.281 21.116C72.281 22.852 72.7477 24.2427 73.681 25.288C74.633 26.3147 75.9024 26.828 77.489 26.828ZM99.5008 31.196C97.6528 31.196 95.9541 30.7667 94.4048 29.908C92.8741 29.0493 91.6514 27.8547 90.7368 26.324C89.8407 24.7747 89.3927 23.0387 89.3927 21.116C89.3927 19.1933 89.8407 17.4667 90.7368 15.936C91.6514 14.4053 92.8741 13.2107 94.4048 12.352C95.9541 11.4933 97.6528 11.064 99.5008 11.064C101.349 11.064 103.038 11.4933 104.569 12.352C106.118 13.2107 107.331 14.4053 108.209 15.936C109.105 17.4667 109.553 19.1933 109.553 21.116C109.553 23.0387 109.105 24.7747 108.209 26.324C107.313 27.8547 106.099 29.0493 104.569 29.908C103.038 30.7667 101.349 31.196 99.5008 31.196ZM99.5008 26.828C101.069 26.828 102.319 26.3053 103.253 25.26C104.205 24.2147 104.681 22.8333 104.681 21.116C104.681 19.38 104.205 17.9987 103.253 16.972C102.319 15.9267 101.069 15.404 99.5008 15.404C97.9141 15.404 96.6448 15.9173 95.6928 16.944C94.7594 17.9707 94.2928 19.3613 94.2928 21.116C94.2928 22.852 94.7594 24.2427 95.6928 25.288C96.6448 26.3147 97.9141 26.828 99.5008 26.828ZM123.612 31L117.004 22.32V31H112.216V11.344H117.004V19.968L123.556 11.344H129.184L121.568 20.976L129.464 31H123.612ZM138.852 31.196C137.415 31.196 136.127 30.9627 134.988 30.496C133.849 30.0293 132.935 29.3387 132.244 28.424C131.572 27.5093 131.217 26.408 131.18 25.12H136.276C136.351 25.848 136.603 26.408 137.032 26.8C137.461 27.1733 138.021 27.36 138.712 27.36C139.421 27.36 139.981 27.2013 140.392 26.884C140.803 26.548 141.008 26.0907 141.008 25.512C141.008 25.0267 140.84 24.6253 140.504 24.308C140.187 23.9907 139.785 23.7293 139.3 23.524C138.833 23.3187 138.161 23.0853 137.284 22.824C136.015 22.432 134.979 22.04 134.176 21.648C133.373 21.256 132.683 20.6773 132.104 19.912C131.525 19.1467 131.236 18.148 131.236 16.916C131.236 15.0867 131.899 13.6587 133.224 12.632C134.549 11.5867 136.276 11.064 138.404 11.064C140.569 11.064 142.315 11.5867 143.64 12.632C144.965 13.6587 145.675 15.096 145.768 16.944H140.588C140.551 16.3093 140.317 15.8147 139.888 15.46C139.459 15.0867 138.908 14.9 138.236 14.9C137.657 14.9 137.191 15.0587 136.836 15.376C136.481 15.6747 136.304 16.1133 136.304 16.692C136.304 17.3267 136.603 17.8213 137.2 18.176C137.797 18.5307 138.731 18.9133 140 19.324C141.269 19.7533 142.296 20.164 143.08 20.556C143.883 20.948 144.573 21.5173 145.152 22.264C145.731 23.0107 146.02 23.972 146.02 25.148C146.02 26.268 145.731 27.2853 145.152 28.2C144.592 29.1147 143.771 29.8427 142.688 30.384C141.605 30.9253 140.327 31.196 138.852 31.196ZM163.106 11.344V15.18H157.898V31H153.11V15.18H147.902V11.344H163.106ZM174.805 31.196C172.957 31.196 171.259 30.7667 169.709 29.908C168.179 29.0493 166.956 27.8547 166.041 26.324C165.145 24.7747 164.697 23.0387 164.697 21.116C164.697 19.1933 165.145 17.4667 166.041 15.936C166.956 14.4053 168.179 13.2107 169.709 12.352C171.259 11.4933 172.957 11.064 174.805 11.064C176.653 11.064 178.343 11.4933 179.873 12.352C181.423 13.2107 182.636 14.4053 183.513 15.936C184.409 17.4667 184.857 19.1933 184.857 21.116C184.857 23.0387 184.409 24.7747 183.513 26.324C182.617 27.8547 181.404 29.0493 179.873 29.908C178.343 30.7667 176.653 31.196 174.805 31.196ZM174.805 26.828C176.373 26.828 177.624 26.3053 178.557 25.26C179.509 24.2147 179.985 22.8333 179.985 21.116C179.985 19.38 179.509 17.9987 178.557 16.972C177.624 15.9267 176.373 15.404 174.805 15.404C173.219 15.404 171.949 15.9173 170.997 16.944C170.064 17.9707 169.597 19.3613 169.597 21.116C169.597 22.852 170.064 24.2427 170.997 25.288C171.949 26.3147 173.219 26.828 174.805 26.828ZM197.545 31L193.457 23.58H192.309V31H187.521V11.344H195.557C197.106 11.344 198.422 11.6147 199.505 12.156C200.606 12.6973 201.428 13.444 201.969 14.396C202.51 15.3293 202.781 16.3747 202.781 17.532C202.781 18.8387 202.408 20.0053 201.661 21.032C200.933 22.0587 199.85 22.7867 198.413 23.216L202.949 31H197.545ZM192.309 20.192H195.277C196.154 20.192 196.808 19.9773 197.237 19.548C197.685 19.1187 197.909 18.512 197.909 17.728C197.909 16.9813 197.685 16.3933 197.237 15.964C196.808 15.5347 196.154 15.32 195.277 15.32H192.309V20.192ZM210.575 15.18V19.156H216.987V22.852H210.575V27.164H217.827V31H205.787V11.344H217.827V15.18H210.575Z" fill="white"/>
<path d="M20.8 7.2166L20 7.53326L19.2 7.2166C16.7978 6.25505 14.2193 5.81288 11.634 5.91916C9.04866 6.02545 6.51514 6.67778 4.19998 7.83326L3.33331 8.29993V35.3666L5.74998 34.1666C7.63701 33.23 9.70016 32.7015 11.8051 32.6153C13.91 32.5292 16.0094 32.8874 17.9666 33.6666L20 34.4833L22.0333 33.6666C23.9906 32.8874 26.09 32.5292 28.1949 32.6153C30.2998 32.7015 32.3629 33.23 34.25 34.1666L36.6666 35.3666V8.29993L35.75 7.83326C33.4415 6.68503 30.9168 6.03661 28.3408 5.93035C25.7647 5.82409 23.1952 6.26238 20.8 7.2166ZM12.4666 29.2499C10.4957 29.2473 8.53724 29.5624 6.66665 30.1833V10.3999C10.2784 8.90015 14.3331 8.87025 17.9666 10.3166L18.3333 10.4666V30.2499C16.4294 29.5939 14.4304 29.2561 12.4166 29.2499H12.4666ZM33.3333 30.1833C29.5482 28.9129 25.4518 28.9129 21.6666 30.1833V10.4666L22.0333 10.3166C25.6668 8.87025 29.7215 8.90015 33.3333 10.3999V30.1833Z" fill="white"/>
</svg>
